<?xml version="1.0" encoding="utf-8"?>
<!-- Generator: Adobe Illustrator 18.0.0, SVG Export Plug-In . SVG Version: 6.00 Build 0)  -->
<!DOCTYPE svg PUBLIC "-//W3C//DTD SVG 1.1//EN" "http://www.w3.org/Graphics/SVG/1.1/DTD/svg11.dtd">
<svg version="1.1" id="Layer_1" xmlns="http://www.w3.org/2000/svg" xmlns:xlink="http://www.w3.org/1999/xlink" x="0px" y="0px"
	 viewBox="0 0 22 20" enable-background="new 0 0 22 20" xml:space="preserve">
<path fill="#F6E1E1" d="M21.5,16L13.3,1.7c-1.3-2.2-3.3-2.2-4.6,0L0.5,16c-1.3,2.2-0.2,4,2.3,4h16.3C21.7,20,22.7,18.2,21.5,16z
	 M11.1,17.5c-0.8,0-1.4-0.6-1.4-1.4c0-0.8,0.6-1.4,1.4-1.4c0.8,0,1.4,0.6,1.4,1.4C12.5,16.9,11.9,17.5,11.1,17.5z M12.1,13.7h-2
	L9.4,5.5h3.3L12.1,13.7z"/>
</svg>
