<?xml version="1.0" encoding="utf-8"?>
<!-- Generator: Adobe Illustrator 18.0.0, SVG Export Plug-In . SVG Version: 6.00 Build 0)  -->
<!DOCTYPE svg PUBLIC "-//W3C//DTD SVG 1.1//EN" "http://www.w3.org/Graphics/SVG/1.1/DTD/svg11.dtd">
<svg version="1.1" id="Layer_1" xmlns="http://www.w3.org/2000/svg" xmlns:xlink="http://www.w3.org/1999/xlink" x="0px" y="0px"
	 viewBox="0 0 20 21" enable-background="new 0 0 20 21" xml:space="preserve">
<g>
	<g>
		<path fill="#999999" d="M17.7,1.4h-1.8v1.7c0,0.6-0.5,1.2-1.2,1.2c-0.6,0-1.2-0.5-1.2-1.2V1.4H6.4v1.7c0,0.6-0.5,1.2-1.2,1.2
			c-0.6,0-1.2-0.5-1.2-1.2V1.4H2.3C1,1.4,0,2.5,0,3.7v15C0,20,1,21,2.3,21h15.5c1.2,0,2.3-1,2.3-2.3v-15C20,2.5,19,1.4,17.7,1.4z
			 M18.5,18.7c0,0.4-0.4,0.8-0.8,0.8H2.3c-0.4,0-0.8-0.4-0.8-0.8V7.1h17.1V18.7z M5.3,3.6c0.2,0,0.4-0.2,0.4-0.4V0.4
			C5.7,0.2,5.5,0,5.3,0C5,0,4.8,0.2,4.8,0.4v2.7C4.8,3.4,5,3.6,5.3,3.6z M14.7,3.6c0.2,0,0.4-0.2,0.4-0.4V0.4C15.2,0.2,15,0,14.7,0
			c-0.2,0-0.4,0.2-0.4,0.4v2.7C14.3,3.4,14.5,3.6,14.7,3.6z M9.2,16.4c0.5-0.4,0.8-0.9,0.8-1.6c0-0.5-0.2-0.9-0.5-1.2
			c-0.3-0.3-0.7-0.5-1.3-0.5v0c0.5-0.1,0.9-0.3,1.2-0.7c0.3-0.3,0.4-0.7,0.4-1.2c0-0.5-0.2-1-0.7-1.3c-0.4-0.3-1-0.5-1.8-0.5
			c-0.9,0-1.7,0.2-2.4,0.7l0.7,1.1c0.3-0.2,0.6-0.3,0.8-0.4c0.2-0.1,0.5-0.1,0.7-0.1c0.7,0,1,0.3,1,0.8c0,0.4-0.1,0.6-0.4,0.8
			c-0.3,0.1-0.7,0.2-1.2,0.2H6.1v1.2h0.5c0.6,0,1.1,0.1,1.3,0.2c0.3,0.1,0.4,0.4,0.4,0.7c0,0.4-0.1,0.7-0.4,0.8
			c-0.2,0.2-0.6,0.3-1.1,0.3c-0.3,0-0.7,0-1-0.1c-0.3-0.1-0.6-0.2-0.9-0.4v1.3C5.6,16.9,6.2,17,7,17C8,17,8.7,16.8,9.2,16.4z
			 M12.5,11.7c0.1-0.1,0.3-0.2,0.5-0.5l0,0.8l0,0.7v4.2h1.5V9.6h-1.3l-2.3,1.9l0.7,0.9L12.5,11.7z"/>
	</g>
</g>
</svg>
