<?xml version="1.0" encoding="utf-8"?>
<!-- Generator: Adobe Illustrator 18.0.0, SVG Export Plug-In . SVG Version: 6.00 Build 0)  -->
<!DOCTYPE svg PUBLIC "-//W3C//DTD SVG 1.1//EN" "http://www.w3.org/Graphics/SVG/1.1/DTD/svg11.dtd">
<svg version="1.1" id="Layer_1" xmlns="http://www.w3.org/2000/svg" xmlns:xlink="http://www.w3.org/1999/xlink" x="0px" y="0px"
	 viewBox="0 0 15 15" enable-background="new 0 0 15 15" xml:space="preserve">
<g>
	<g>
		<path fill="#999999" d="M11.5,5.8C11.5,2.6,8.9,0,5.8,0C2.6,0,0,2.6,0,5.8c0,3.2,2.6,5.8,5.8,5.8C8.9,11.6,11.5,9,11.5,5.8z
			 M5.8,9.7c-2.1,0-3.8-1.7-3.8-3.9c0-2.1,1.7-3.9,3.8-3.9s3.8,1.7,3.8,3.9C9.6,7.9,7.9,9.7,5.8,9.7z M14.6,12.5l-2.8-2.9
			c-0.5,0.9-1.2,1.6-2.1,2.2l2.8,2.9c0.5,0.5,1.3,0.5,1.8,0l0.4-0.4C15.1,13.8,15.1,13,14.6,12.5z"/>
	</g>
</g>
</svg>
