<?xml version="1.0" encoding="utf-8"?>
<!-- Generator: Adobe Illustrator 18.0.0, SVG Export Plug-In . SVG Version: 6.00 Build 0)  -->
<!DOCTYPE svg PUBLIC "-//W3C//DTD SVG 1.1//EN" "http://www.w3.org/Graphics/SVG/1.1/DTD/svg11.dtd">
<svg version="1.1" id="Layer_1" xmlns="http://www.w3.org/2000/svg" xmlns:xlink="http://www.w3.org/1999/xlink" x="0px" y="0px"
	 viewBox="0 0 10 20" enable-background="new 0 0 10 20" xml:space="preserve">
<g>
	<g>
		<path fill="#33A8E0" d="M10,13.8c0-0.1-0.2-0.2-0.3-0.2l-3.3-0.1l-1.1-3.3C5.2,10.1,5.1,10,5,10c-0.1,0-0.2,0.1-0.3,0.2l-1.1,3.3
			l-3.3,0.1c-0.1,0-0.2,0.1-0.3,0.2c0,0.1,0,0.3,0.1,0.4l2.7,2.1l-1,3.3c0,0.1,0,0.3,0.1,0.3C2,20,2.2,20,2.3,19.9L5,18l2.7,2
			c0,0,0.1,0.1,0.2,0.1C8,20,8,20,8.1,19.9c0.1-0.1,0.1-0.2,0.1-0.3l-1-3.3l2.7-2.1C10,14.1,10,13.9,10,13.8z"/>
	</g>
</g>
<g>
	<g>
		<path fill="#CCCCCC" d="M10,3.8c0-0.1-0.2-0.2-0.3-0.2L6.4,3.5L5.3,0.2C5.2,0.1,5.1,0,5,0C4.9,0,4.8,0.1,4.7,0.2L3.6,3.5L0.3,3.6
			C0.2,3.6,0.1,3.7,0,3.8c0,0.1,0,0.3,0.1,0.4l2.7,2.1l-1,3.3c0,0.1,0,0.3,0.1,0.3C2,10,2.2,10,2.3,9.9L5,8l2.7,2
			c0,0,0.1,0.1,0.2,0.1C8,10,8,10,8.1,9.9c0.1-0.1,0.1-0.2,0.1-0.3l-1-3.3l2.7-2.1C10,4.1,10,3.9,10,3.8z"/>
	</g>
</g>
</svg>
