<svg id="Layer_1" xmlns="http://www.w3.org/2000/svg" viewBox="0 0 300 300"><style>.st0{fill:#fff}</style><path class="st0" d="M148.2 90l3.6-3.3-3.6 3.3zm.3-6.5c1-.8 2-1.5 3-2.2-1 .7-2 1.4-3 2.2zM45 170.1c-.2-.1-.4-.2-.6-.2.2.1.4.2.6.2zm-2.8-1.2c-.3-.2-.6-.3-.8-.5.2.2.5.4.8.5zm4 1.6l-.9-.3.9.3zm-3.1-1.1c-.2-.1-.5-.2-.7-.4.2.1.5.2.7.4zm.9.4l-.6-.3.6.3zm5.2 1.3c-.2 0-.5-.1-.7-.1.3 0 .5.1.7.1zm-2-.4c-.3-.1-.5-.1-.8-.2.3.1.5.2.8.2zm1 .2c-.2 0-.4-.1-.7-.1.2.1.5.1.7.1zm-7.1-2.7c-.2-.1-.4-.2-.6-.4.2.2.4.3.6.4zm-5-4.7l-.6-.9.6.9zm-.6-1c-.2-.3-.4-.7-.6-1 .1.3.3.6.6 1zm1.3 1.9c-.2-.2-.3-.4-.5-.6.2.2.4.4.5.6zm2.6 2.6l-.6-.6c.1.2.4.4.6.6zm-1.8-1.7c-.2-.2-.3-.4-.5-.6.2.2.3.4.5.6zm2.6 2.3c-.2-.1-.4-.3-.5-.4.2.1.3.3.5.4zm10.3 3.6c-.3 0-.7-.1-1-.1.4.1.7.1 1 .1zm199.6-3c-.2 0-.4 0-.7-.1.3.1.5.1.7.1zm-215.5-7.1c-.1-.3-.3-.5-.4-.8.1.3.3.5.4.8zm217 7.2h-.6.6zm-3-.2c-.2 0-.4 0-.6-.1.2 0 .4 0 .6.1zm4 .2h.4-.6.2zm-9.5-1.2c-.2 0-.4-.1-.6-.1.2 0 .4.1.6.1zm11.4 1.2h-.6.6zm-7.5-.5c-.2 0-.4-.1-.6-.1.2.1.4.1.6.1zm-1.9-.3c-.1 0-.3 0-.4-.1.2.1.3.1.4.1zm-187 3.2c-.2 0-.3.1-.5.1.2 0 .3 0 .5-.1zm-3.1.4h-.2c.1.1.2.1.2 0zm201-3c-.2 0-.4 0-.6.1.2-.1.4-.1.6-.1zm-203.7 3.2h.2-.6.4zm1.5-.1h-.4.4zm2.9-.3c-.1 0-.3 0-.4.1.1 0 .3 0 .4-.1zm200.7-3.1c-.2 0-.3.1-.5.1.1 0 .3 0 .5-.1zm-205.9 3.5h-.8c.3-.1.6 0 .8 0zm-12.9-5c-.3-.2-.5-.5-.7-.7l.7.7zm229.5-8.8c-.1.2-.2.5-.2.7 0-.2.1-.4.2-.7zm-.7 1.7l-.3.6.3-.6zm1.7-5.4c0 .2-.1.4-.2.6.1-.2.2-.4.2-.6zm-.5 1.9c-.1.2-.1.5-.2.7.1-.2.2-.4.2-.7zm-2 5c-.1.2-.2.3-.3.5.2-.1.3-.3.3-.5zm-1.9 2.9c-.1.1-.2.3-.4.4.1-.2.3-.3.4-.4zm.9-1.1l-.2.2c.1-.1.1-.2.2-.2zm-7.5-61.7c.6.9 1.1 1.8 1.7 2.6-.5-.9-1.1-1.8-1.7-2.6zm5.2 9.1l1.2 2.7c-.3-1-.7-1.8-1.2-2.7zm.4 54.7c-.1.1-.3.2-.4.4.1-.2.3-.3.4-.4zm-231.5-9c-.1-.3-.2-.7-.3-1 .1.3.2.7.3 1zm2.2-40.7c.5-1.1 1-2.3 1.5-3.4-.5 1.1-1 2.3-1.5 3.4zm-2.6 39.2c-.1-.4-.2-.7-.3-1.1.1.4.2.7.3 1.1zm5-44.3c2.2-4.3 5-8.5 8.3-12.5-3.3 4-6.1 8.2-8.3 12.5zm-3.9 47.6c-.2-.4-.3-.9-.5-1.4.1.5.3 1 .5 1.4zm229.8 8c-.1.1-.3.2-.5.3.2 0 .3-.1.5-.3zm-229.3-6.7c-.2-.4-.3-.8-.5-1.2.2.4.3.8.5 1.2zm226.9 8.2c-.1.1-.3.1-.4.2.1-.1.3-.2.4-.2zm-1.6.6c-.1 0-.2 0-.3.1.1-.1.2-.1.3-.1zM34.4 114.9c-4.8 11.6-6 23.9-3.4 36 .1.6.2 1.1.4 1.6-.1-.5-.3-1.1-.4-1.6-2.6-12.1-1.4-24.4 3.4-36zm227.2 51.3c-.2.1-.3.2-.5.3.1-.1.3-.2.5-.3zM34 159.9c-.1-.3-.3-.5-.4-.8.1.3.3.5.4.8zm141.7-1.8c-.1 0-.2.1-.3.1 0 0 .2 0 .3-.1zm-2 .9c-.1.1-.3.1-.4.2.2-.1.3-.2.4-.2zm-5.6 3.2c-.3.2-.7.4-1 .6.3-.2.6-.4 1-.6zm2-1.2l-1.5.9 1.5-.9zm7.4-3.6c-.2.1-.3.1-.5.2.1 0 .3-.1.5-.2zm-5.4 2.4c-.2.1-.3.2-.5.2.2 0 .4-.1.5-.2zm14.8-4.4c-.2 0-.3 0-.5.1.1 0 .3 0 .5-.1zm-2.1.3h-.2.2zm-18.3 7.3c-.3.2-.6.3-1 .5.3-.1.7-.3 1-.5zm12.6-6.1c-.1 0-.2.1-.3.1.1 0 .2-.1.3-.1zm3.9-.9c-.2 0-.3.1-.5.1.2-.1.3-.1.5-.1zm-1.8.4c-.2 0-.3.1-.5.1.2-.1.4-.1.5-.1zm-30.7 11.1h.4-.6.2zm1.6-.1h-.8.8zm4.1-.5c-.3.1-.6.1-.9.2.3-.1.6-.2.9-.2zm8.8-3.1c-.3.2-.6.3-1 .5.3-.2.7-.3 1-.5zm-11.3 3.5c-.4 0-.8.1-1.2.1.4 0 .8-.1 1.2-.1zm34.9-12h-.4.4zm-39.4 12.1h-.5.5zm5.8-.3c-.4.1-.8.1-1.3.2.4-.1.8-.1 1.3-.2zm8.5-2.6c-.4.2-.8.3-1.1.5.4-.2.7-.3 1.1-.5zm-1.4.6c-.5.2-.9.4-1.4.5.5-.2.9-.3 1.4-.5zm-3.2 1.1l-.9.3.9-.3zm1.5-.5c-.4.1-.7.2-1.1.4.4-.2.8-.3 1.1-.4zm-2.8.9c-.3.1-.6.1-.9.2.3-.1.6-.2.9-.2zm33.1-11.4h-.4.4zm38.2 8c-1.4-.4-2.8-.9-4.2-1.3 1.4.4 2.8.8 4.2 1.3zm5.5 1.6c-.3-.1-.7-.2-1-.3.3.1.6.2 1 .3zm-1.8-.5c-.4-.1-.7-.2-1.1-.3.3.1.7.2 1.1.3zm-1.9-.6c-.4-.1-.8-.3-1.3-.4.5.2.9.3 1.3.4zm-6.4-2c-.5-.1-.9-.3-1.4-.4.5.1.9.3 1.4.4zm-2.1-.6c-.4-.1-.9-.3-1.3-.4.5.1.9.3 1.3.4zm-2-.6c-.4-.1-.8-.2-1.3-.4.5.1.9.3 1.3.4zm-25.1-5.2c-.4 0-.7 0-1.1-.1.3.1.7.1 1.1.1zm46.3 11.4c-.3-.1-.5-.1-.8-.2.3.1.6.2.8.2zm-3.4-.9c-.3-.1-.6-.2-.9-.2.3.1.6.2.9.2zm1.7.5c-.3-.1-.6-.1-.9-.2.3.1.6.1.9.2zm-3.5-.9l-.9-.3.9.3zm-88.6 1.9h-.1.1zm53.7-11.3c-.4-.1-.8-.1-1.2-.2.3.1.7.1 1.2.2zm2.1.3c-.4-.1-.9-.2-1.3-.2.4.1.8.1 1.3.2zm2.3.5c-.6-.1-1.1-.2-1.7-.3.6 0 1.2.1 1.7.3zm12.5 3.1c-.4-.1-.8-.2-1.2-.4.4.2.8.3 1.2.4zm-21.1-4.4c-.4 0-.8-.1-1.1-.1.4 0 .8 0 1.1.1zm2.1.2c-.4 0-.8-.1-1.2-.1.4 0 .8.1 1.2.1zm8.9 1.6c-.7-.2-1.4-.3-2-.4.7.1 1.4.2 2 .4zm6.1 1.5c-.4-.1-.9-.2-1.3-.4.4.1.9.2 1.3.4zm2 .5c-.4-.1-.8-.2-1.3-.4.5.2.9.3 1.3.4zm-4-1.1c-.5-.1-1-.2-1.5-.4.5.2 1 .3 1.5.4zm-2-.5c-.6-.2-1.3-.3-1.9-.4.6.1 1.2.3 1.9.4zM59.4 170.5c-.2 0-.3.1-.5.1.2-.1.3-.1.5-.1zm20.9-8.3c-.1.1-.3.1-.4.2.2 0 .3-.1.4-.2zm1.1-.5l-.1.1c0-.1 0-.1.1-.1zm1.3-.8c-.1.1-.2.1-.4.2.2 0 .3-.1.4-.2zm-5.7 3c-.1.1-.3.1-.4.2.1 0 .3-.1.4-.2zm6.7-3.5c-.1.1-.3.1-.4.2.1-.1.3-.1.4-.2zm62.4 6.7c-.1 0-.3 0-.4-.1.1.1.2.1.4.1zm-66.8-4.3c-.1.1-.3.1-.4.2.1-.1.2-.1.4-.2zm6.2-3.4c-.1.1-.2.1-.4.2.2-.1.3-.1.4-.2zm-.9.5c-.1.1-.3.1-.4.2.2-.1.3-.2.4-.2zm11.8-5.7c-.6.2-1.3.4-1.9.7.7-.2 1.3-.4 1.9-.7zm-2.3.9c-.5.2-1.1.4-1.6.7.6-.3 1.1-.5 1.6-.7zm-5.6 2.6c-.1.1-.3.2-.5.2.2 0 .3-.1.5-.2zm-13 7c-.1 0-.1.1-.2.1 0-.1.1-.1.2-.1zm12.3-6.6c-.2.1-.3.2-.5.3.1-.1.3-.2.5-.3zm-.8.4c-.4.2-.8.5-1.3.7.5-.2.9-.4 1.3-.7zm2.2-1.1c-.1.1-.3.2-.4.2.1-.1.2-.2.4-.2zm-28.5 12.8c-.2 0-.3.1-.5.1.2 0 .4-.1.5-.1zm28.6-12.9l.6-.3c.7-.4 1.4-.7 2-1-.7.3-1.4.6-2 1l-.6.3zM62 169.9c-.1 0-.2 0-.2.1 0-.1.1-.1.2-.1z"/><path class="st0" d="M191.6 165.2c-7.5 0-13.9 1.7-19.4 5.1-7.7 4.8-14.8 7.1-21.8 7.1-9.2 0-16.5-4-23.6-7.8-6.6-3.6-12.9-7-20.5-7-4.6 0-9.4 1.3-14.6 3.9-1 .5-2.3 1.2-3.8 2.1-7 3.9-18 10.1-29 12l11.8 93h158.4l12.7-96.7c-5-1.1-10.4-2.8-15.9-4.5-11.3-3.5-23.1-7.2-34.3-7.2zm-127.9 4.2c-.1 0-.3.1-.4.1.1 0 .3-.1.4-.1zM192 155.2h1.1-1.1zm-87.4-2.5c.6 0 1.1 0 1.6-.1-.5 0-1.1 0-1.6.1zm-31.5 13.1c-.2.1-.3.1-.5.2.2-.1.3-.1.5-.2zm-1.2.5c-.2.1-.3.1-.5.2.1 0 .3-.1.5-.2zm2.4-1.1c-.1.1-.3.1-.4.2.1 0 .3-.1.4-.2zm-3.7 1.7c-.1.1-.3.1-.4.2.1-.1.2-.1.4-.2zm-1.7.7c-.1 0-.2.1-.2.1.1-.1.1-.1.2-.1zm-2.5.9c-.2.1-.3.1-.5.2.1-.1.3-.1.5-.2zm1.3-.5c-.2.1-.3.1-.5.2.1 0 .3-.1.5-.2zm-2.6 1c-.2.1-.3.1-.5.2.1-.1.3-.2.5-.2zm13.1-5.6c-.1.1-.3.1-.4.2.1-.1.2-.2.4-.2zm54.4-1.2c-.1-.1-.2-.1-.4-.2.1.1.3.1.4.2zm1.2.6c-.1-.1-.2-.1-.3-.2.1.1.2.2.3.2zm-2.5-1.3c-.1-.1-.2-.1-.3-.2.1.1.2.2.3.2zm-6.7-3.6l-1.2-.6 1.2.6z"/><path class="st0" d="M136.6 164.1c-.1-.1-.2-.1-.3-.2 0 .1.2.2.3.2zm-9.6-4.9c-.2-.1-.4-.2-.7-.4.3.1.5.3.7.4zm1 .5c-.1-.1-.3-.2-.4-.2.1.1.3.2.4.2zm-2.2-1.2c-.3-.1-.5-.3-.8-.4.3.2.6.3.8.4zm17.6 8.1c-.2 0-.3-.1-.4-.1.1 0 .2 0 .4.1zm-45.1-12.9c-.5.1-1 .3-1.5.4.6-.1 1.1-.3 1.5-.4zm46.4 13.2c-.2 0-.3-.1-.5-.1.2 0 .4 0 .5.1zm-6.8-2.2c-.1-.1-.3-.1-.4-.2.1.1.2.1.4.2zm1.2.5c-.1-.1-.3-.1-.4-.2.2.1.3.1.4.2zm2.9 1c-.1 0-.2-.1-.3-.1 0 0 .2 0 .3.1zm-1.6-.5c-.1 0-.2-.1-.3-.1.1 0 .2 0 .3.1zm-18.6-9.2c-.3-.1-.5-.3-.8-.4.3.2.6.3.8.4zm-12.6-3.8c-.3 0-.6-.1-1-.1.3.1.6.1 1 .1zm-1.5-.1h-1 1zm3.1.3c-.4-.1-.8-.1-1.1-.2.3.1.7.2 1.1.2zm-10.2.3c-.6.1-1.2.3-1.8.4.6-.2 1.2-.3 1.8-.4zm22.7 4c-.3-.2-.7-.3-1-.5.3.2.6.4 1 .5zm-19-4.5c-.5 0-.9.1-1.4.1.4 0 .9-.1 1.4-.1zm-1.9.2c-.5.1-1.1.2-1.7.3.6-.2 1.1-.3 1.7-.3zm10 .3c-.4-.1-.9-.2-1.4-.2.5 0 .9.1 1.4.2zm5.7 1.7c-.4-.2-.8-.3-1.3-.5.4.2.8.4 1.3.5zm1.2.5c-.3-.1-.7-.3-1-.4.3.1.7.3 1 .4zm-2.9-1.1l-.9-.3.9.3zm4.2 1.7c-.3-.1-.5-.2-.8-.4.2.1.5.2.8.4zm-5.5-2.1c-.3-.1-.6-.2-.9-.2.3 0 .6.1.9.2zm-1.4-.4c-.3-.1-.6-.2-1-.2.4.1.7.2 1 .2z"/><path class="st0" d="M150 77.3c-12.3 0-22.8-7.7-26.9-18.6-13.3 1.9-25.3 5-35.9 9.3-.5.2-1.1.4-1.6.7-2.5 1-5 2.1-7.3 3.3-.9.4-1.7.9-2.6 1.3-1.4.7-2.8 1.5-4.1 2.2-2.3 1.3-4.4 2.6-6.5 4-.9.6-1.8 1.2-2.6 1.8-1 .7-2 1.5-3 2.2-1.4 1.1-2.7 2.2-4 3.3-1.3 1.1-2.5 2.2-3.6 3.3-.6.6-1.3 1.2-1.9 1.9-1.7 1.8-3.3 3.6-4.9 5.4-3.3 4-6 8.2-8.3 12.5-.3.6-.6 1.1-.8 1.7-.5 1.1-1.1 2.3-1.5 3.4-4.8 11.6-6 23.9-3.4 36 .1.6.2 1.1.4 1.6 0 .2.1.3.1.5.1.4.2.7.3 1.1 0 .2.1.3.2.5.1.3.2.7.3 1 0 .1.1.3.1.4.2.5.3.9.5 1.4v.1c.2.4.3.8.5 1.2.1.1.1.3.2.4.1.3.3.6.4.8.1.1.1.3.2.4.1.3.3.5.4.8.1.1.1.2.2.4.2.4.4.7.6 1l.1.1.6.9c.1.1.2.2.2.3.2.2.3.4.5.6l.3.3c.2.2.3.4.5.6.1.1.2.2.2.3.2.3.5.5.7.7l.1.1.6.6c.1.1.2.2.3.2.2.1.4.3.5.4.1.1.2.2.3.2.2.1.4.3.6.4.1.1.2.1.3.2.3.2.6.3.8.5.1 0 .1.1.2.1.2.1.5.2.7.4.1.1.2.1.3.1l.6.3c.1 0 .2.1.3.1.2.1.4.2.6.2.1 0 .2.1.3.1l.9.3h.2c.3.1.5.1.8.2.1 0 .2 0 .3.1.2 0 .4.1.7.1.1 0 .2 0 .3.1.2 0 .5.1.7.1h.3c.3 0 .7.1 1 .1h3.1c.3 0 .7 0 1-.1h.2c.4 0 .8-.1 1.3-.1.1 0 .3 0 .4-.1.3 0 .6-.1.9-.1.2 0 .3-.1.5-.1.3 0 .5-.1.8-.2.2 0 .3-.1.5-.1.3-.1.6-.1.9-.2.2 0 .3-.1.5-.1.4-.1.7-.2 1.1-.3.1 0 .2 0 .2-.1.4-.1.9-.2 1.3-.4.1 0 .3-.1.4-.1l.9-.3c.2-.1.3-.1.5-.2.3-.1.5-.2.8-.3.2-.1.3-.1.5-.2.3-.1.5-.2.8-.3.2-.1.3-.1.5-.2.3-.1.7-.3 1-.4.1 0 .2-.1.2-.1.4-.2.8-.3 1.2-.5.1-.1.3-.1.4-.2.3-.1.5-.2.8-.3.2-.1.3-.1.5-.2.3-.1.5-.2.8-.3.2-.1.3-.1.5-.2.3-.1.5-.2.8-.4.1-.1.3-.1.4-.2.3-.2.7-.3 1-.5.1 0 .1-.1.2-.1.4-.2.8-.4 1.1-.6.1-.1.3-.1.4-.2.2-.1.5-.2.7-.4.1-.1.3-.1.4-.2.2-.1.5-.2.7-.3.1-.1.3-.1.4-.2.2-.1.4-.2.7-.4.1-.1.3-.1.4-.2.3-.2.6-.3.9-.5l.1-.1c.3-.2.7-.4 1-.5.1-.1.2-.1.4-.2l.6-.3c.1-.1.3-.1.4-.2l.6-.3c.1-.1.3-.1.4-.2.2-.1.4-.2.5-.3.1-.1.2-.1.4-.2.1 0 .2-.1.2-.1.4-.3.9-.5 1.3-.7.1 0 .2-.1.2-.1.2-.1.3-.2.5-.3.1 0 .2-.1.2-.1.2-.1.3-.2.5-.2.1 0 .2-.1.2-.1.2-.1.3-.2.4-.2.1 0 .1-.1.2-.1l.6-.3c.7-.4 1.4-.7 2-1 .2-.1.4-.2.6-.2.5-.2 1.1-.5 1.6-.7.1-.1.3-.1.4-.2.6-.2 1.3-.5 1.9-.7.1 0 .3-.1.4-.1.5-.2 1-.3 1.5-.4.2 0 .3-.1.5-.1.6-.2 1.2-.3 1.8-.4h.1c.6-.1 1.1-.2 1.7-.3.2 0 .3 0 .5-.1.5-.1.9-.1 1.4-.1h.3c.6 0 1.1 0 1.6-.1h1.9c.3 0 .6 0 1 .1h.5c.4 0 .8.1 1.1.2h.3c.5.1.9.2 1.4.2.1 0 .3.1.4.1.3.1.6.1 1 .2.2 0 .3.1.5.1.3.1.6.2.9.2.2 0 .3.1.5.1l.9.3c.1 0 .2.1.4.1.4.1.8.3 1.3.5.1 0 .1.1.2.1.3.1.7.3 1 .4.1.1.3.1.4.2.3.1.6.2.8.4.2.1.3.1.4.2.3.1.5.3.8.4.1.1.3.1.4.2.3.2.7.3 1 .5.1 0 .1.1.2.1l1.2.6c.1.1.3.2.4.2.3.1.5.3.8.4.2.1.3.2.5.3.2.1.4.2.7.4l.6.3c.1.1.3.2.4.2 1 .5 2 1.1 3 1.6.1.1.2.1.3.2.3.2.6.3.9.5.1.1.2.1.4.2.3.2.6.3.9.5.1.1.2.1.3.2l2.4 1.2c.1.1.2.1.3.2.3.1.6.3.9.4.1.1.3.1.4.2.3.1.6.2.8.3.1.1.3.1.4.2.3.1.7.2 1 .4.1 0 .2.1.3.1.4.1.8.3 1.3.4.1 0 .2.1.3.1.3.1.6.2 1 .3.1 0 .3.1.4.1.3.1.6.1.9.2.2 0 .3.1.5.1.3.1.6.1.9.2.1 0 .3.1.4.1.4.1.9.1 1.3.2h.1c.4 0 .8.1 1.2.1h3.7c.4 0 .8-.1 1.2-.1.4 0 .8-.1 1.3-.2.1 0 .2 0 .4-.1.3-.1.6-.1.9-.2.1 0 .3-.1.4-.1.3-.1.6-.1.9-.2.2 0 .3-.1.5-.1l.9-.3c.1 0 .3-.1.4-.1.4-.1.7-.2 1.1-.4.1 0 .2-.1.3-.1.5-.2.9-.3 1.4-.5.1 0 .2-.1.3-.1.4-.2.8-.3 1.1-.5.2-.1.3-.1.5-.2.3-.1.6-.3 1-.5.2-.1.4-.2.5-.3.3-.2.6-.3 1-.5l.6-.3c.3-.2.7-.4 1-.6.2-.1.3-.2.5-.3l1.5-.9c.5-.3 1-.6 1.6-.9.2-.1.3-.2.5-.2l1.2-.6c.1-.1.3-.1.4-.2.5-.3 1.1-.5 1.6-.7.1 0 .2-.1.3-.1.4-.2.9-.3 1.3-.5.2-.1.3-.1.5-.2.5-.2.9-.3 1.4-.4.1 0 .2-.1.3-.1.5-.2 1.1-.3 1.6-.4.2 0 .3-.1.5-.1.4-.1.8-.2 1.3-.3.2 0 .3-.1.5-.1.6-.1 1.1-.2 1.7-.3h.2c.5-.1 1-.1 1.5-.2.2 0 .3 0 .5-.1.4 0 .9-.1 1.3-.1h.4c.6 0 1.1-.1 1.7-.1h3.7c.4 0 .7 0 1.1.1.3 0 .6 0 .9.1.4 0 .8.1 1.1.1.3 0 .6.1.9.1.4 0 .8.1 1.2.1.3 0 .6.1.8.1.4.1.8.1 1.2.2.3 0 .5.1.8.1.4.1.9.1 1.3.2.2 0 .5.1.7.1.6.1 1.1.2 1.7.3.1 0 .2 0 .4.1.7.1 1.4.3 2 .4h.1c.6.1 1.3.3 1.9.4.2 0 .4.1.6.1.5.1 1 .2 1.5.4.2.1.4.1.7.2.4.1.9.2 1.3.4.2.1.5.1.7.2.4.1.8.2 1.3.4.3.1.5.1.8.2.4.1.8.2 1.2.4.2.1.5.1.7.2.4.1.8.2 1.3.4.2.1.5.1.7.2.4.1.9.3 1.3.4.2.1.4.1.6.2.5.1.9.3 1.4.4.1 0 .3.1.4.1 1.4.4 2.8.9 4.2 1.3.2.1.4.1.6.2.4.1.8.3 1.3.4.2.1.5.1.7.2.4.1.7.2 1.1.3.3.1.5.2.8.2.3.1.7.2 1 .3l.9.3.9.3c.3.1.6.2.9.2.3.1.6.2.9.2.3.1.6.2.9.2.3.1.6.2.9.2.3.1.6.2.9.2.3.1.5.1.8.2.4.1.7.2 1.1.2.2 0 .4.1.6.1.6.1 1.1.2 1.6.3.1 0 .3 0 .4.1.4.1.8.2 1.2.2.2 0 .4.1.6.1.3.1.7.1 1 .1.2 0 .4 0 .6.1.3 0 .6.1.9.1.2 0 .4 0 .7.1.3 0 .6 0 .8.1h3.5c.3 0 .6-.1.9-.1.2 0 .4 0 .6-.1.3 0 .6-.1.9-.2.2 0 .3-.1.5-.1.4-.1.7-.2 1-.3.1 0 .2 0 .3-.1.4-.1.8-.3 1.2-.5.1-.1.3-.1.4-.2.3-.1.5-.2.8-.4.2-.1.3-.2.5-.3.2-.1.5-.3.7-.4.2-.1.3-.2.5-.3.2-.2.4-.3.6-.5.1-.1.3-.2.4-.4l.6-.6.4-.4c.3-.3.5-.6.7-.9l.2-.2c.3-.4.5-.8.8-1.3.1-.2.2-.3.3-.5.2-.3.3-.6.5-1l.3-.6c.1-.3.3-.6.4-1 .1-.2.2-.4.2-.7.1-.4.2-.7.4-1.1.1-.2.1-.5.2-.7.1-.4.2-.9.3-1.3.1-.2.1-.4.2-.6.1-.7.3-1.4.4-2.1.4-2.7.7-5.4.8-8.2.1-1.4.1-2.8 0-4.1 0-1.4-.1-2.8-.2-4.2-.1-1.4-.3-2.8-.4-4.2-.2-1.4-.4-2.8-.7-4.2-.7-3.5-1.6-6.9-2.9-10.3-.5-1.4-1-2.7-1.6-4.1l-1.2-2.7c-1.1-2.2-2.2-4.4-3.5-6.5-.5-.9-1.1-1.8-1.7-2.6-1.7-2.5-3.6-5-5.7-7.4-1-1.2-2.1-2.4-3.3-3.6-1.7-1.7-3.5-3.5-5.4-5.1-1.9-1.7-3.9-3.3-6.1-4.8-.7-.5-1.4-1-2.2-1.5-1.5-1-3-2-4.6-2.9-.8-.5-1.6-.9-2.4-1.4-3.2-1.8-6.7-3.6-10.4-5.1-.9-.4-1.8-.8-2.8-1.2-11-4.4-23.7-7.7-38.3-9.5-3.7 11.7-14.4 19.7-26.8 19.7zm0 16.8c4.2 0 7.5 3.4 7.5 7.5 0 4.2-3.4 7.5-7.5 7.5s-7.5-3.4-7.5-7.5c0-4.2 3.3-7.5 7.5-7.5zm-44.8 7.8c4.2 0 7.5 3.4 7.5 7.5 0 4.2-3.4 7.5-7.5 7.5-4.2 0-7.5-3.4-7.5-7.5s3.3-7.5 7.5-7.5zm24.1 32.1c-4.2 0-7.5-3.4-7.5-7.5 0-4.2 3.4-7.5 7.5-7.5 4.2 0 7.5 3.4 7.5 7.5s-3.4 7.5-7.5 7.5zm65.5-32.1c4.2 0 7.5 3.4 7.5 7.5 0 4.2-3.4 7.5-7.5 7.5-4.2 0-7.5-3.4-7.5-7.5s3.4-7.5 7.5-7.5zm-16.5 24.6c0 4.2-3.4 7.5-7.5 7.5s-7.5-3.4-7.5-7.5c0-4.2 3.4-7.5 7.5-7.5s7.5 3.3 7.5 7.5z"/><path class="st0" d="M150 26.4c-11.6 0-21 9.4-21 21s9.4 21 21 21c5.8 0 11-2.3 14.8-6.1l.8-.8c.3-.3.6-.7.8-1 .3-.4.6-.8.9-1.3.4-.6.7-1.1 1-1.7.4-.7.7-1.4 1-2.1.4-1.1.8-2.1 1-3.3.3-1.5.5-3 .5-4.6 0-3.3-.7-6.3-2.1-9.1-.5-1.1-1.2-2.2-1.9-3.2-.1-.1-.2-.3-.3-.4l-1.8-2.1c-3.7-4-8.9-6.3-14.7-6.3zm0 5.4c5.3 0 9.6 3.1 9.6 7s-4.3 7-9.6 7-9.6-3.1-9.6-7 4.3-7 9.6-7z"/></svg>