<?xml version="1.0" encoding="utf-8"?>
<!-- Generator: Adobe Illustrator 18.0.0, SVG Export Plug-In . SVG Version: 6.00 Build 0)  -->
<!DOCTYPE svg PUBLIC "-//W3C//DTD SVG 1.1//EN" "http://www.w3.org/Graphics/SVG/1.1/DTD/svg11.dtd">
<svg version="1.1" id="Layer_1" xmlns="http://www.w3.org/2000/svg" xmlns:xlink="http://www.w3.org/1999/xlink" x="0px" y="0px"
	 viewBox="0 0 12 23" enable-background="new 0 0 12 23" xml:space="preserve">
<g>
	<g>
		<path fill="#666766" d="M11.8,0.2c-0.3-0.3-0.8-0.3-1.1,0L5.9,5L1.3,0.2C1-0.1,0.5-0.1,0.2,0.2s-0.3,0.8,0,1.2l5.2,5.3
			C5.5,6.9,5.7,7,5.9,7c0.2,0,0.4-0.1,0.6-0.2l5.2-5.3C12.1,1.1,12.1,0.6,11.8,0.2z"/>
	</g>
</g>
<g>
	<g>
		<path fill="#33A9E0" d="M11.8,8.2c-0.3-0.3-0.8-0.3-1.1,0L5.9,13L1.3,8.2C1,7.9,0.5,7.9,0.2,8.2c-0.3,0.3-0.3,0.8,0,1.2l5.2,5.3
			C5.5,14.9,5.7,15,5.9,15c0.2,0,0.4-0.1,0.6-0.2l5.2-5.3C12.1,9.1,12.1,8.6,11.8,8.2z"/>
	</g>
</g>
<g>
	<g>
		<path fill="#FFFFFF" d="M11.8,16.2c-0.3-0.3-0.8-0.3-1.1,0L5.9,21l-4.6-4.8c-0.3-0.3-0.8-0.3-1.1,0c-0.3,0.3-0.3,0.8,0,1.2
			l5.2,5.3C5.5,22.9,5.7,23,5.9,23c0.2,0,0.4-0.1,0.6-0.2l5.2-5.3C12.1,17.1,12.1,16.6,11.8,16.2z"/>
	</g>
</g>
</svg>
