<?xml version="1.0" encoding="utf-8"?>
<!-- Generator: Adobe Illustrator 18.0.0, SVG Export Plug-In . SVG Version: 6.00 Build 0)  -->
<!DOCTYPE svg PUBLIC "-//W3C//DTD SVG 1.1//EN" "http://www.w3.org/Graphics/SVG/1.1/DTD/svg11.dtd">
<svg version="1.1" id="Sprite" xmlns="http://www.w3.org/2000/svg" xmlns:xlink="http://www.w3.org/1999/xlink" x="0px" y="0px"
	 viewBox="0 0 68 68" enable-background="new 0 0 68 68" xml:space="preserve">
<rect id="BG" display="none" fill="#ED1C24" width="68" height="68"/>
<g id="Close">
	<g id="Active_1_">
		<path fill="#FFFFFF" d="M44.6,42.6l14.8,14.8c0.6,0.6,0.6,1.5,0,2.1s-1.5,0.6-2.1,0L42.5,44.7c-0.6-0.6-0.6-1.5,0-2.1
			C43.1,42,44.1,42,44.6,42.6z"/>
		<path fill="#FFFFFF" d="M42.5,57.4l14.8-14.8c0.6-0.6,1.5-0.6,2.1,0c0.6,0.6,0.6,1.5,0,2.1L44.6,59.6c-0.6,0.6-1.5,0.6-2.1,0
			S41.9,58,42.5,57.4z"/>
	</g>
	<g id="Default_2_">
		<path fill="#999999" d="M44.6,8.4l14.8,14.8c0.6,0.6,0.6,1.5,0,2.1s-1.5,0.6-2.1,0L42.5,10.6c-0.6-0.6-0.6-1.5,0-2.1
			S44.1,7.9,44.6,8.4z"/>
		<path fill="#999999" d="M42.5,23.3L57.4,8.4c0.6-0.6,1.5-0.6,2.1,0s0.6,1.5,0,2.1L44.6,25.4c-0.6,0.6-1.5,0.6-2.1,0
			S41.9,23.9,42.5,23.3z"/>
	</g>
</g>
<g id="Menu">
	<g id="Active">
		<path fill="#33A9E0" d="M6.5,57.7h21c0.8,0,1.5,0.7,1.5,1.5s-0.7,1.5-1.5,1.5h-21C5.7,60.7,5,60,5,59.2S5.7,57.7,6.5,57.7z"/>
		<path fill="#33A9E0" d="M6.5,49.7h21c0.8,0,1.5,0.7,1.5,1.5s-0.7,1.5-1.5,1.5h-21C5.7,52.7,5,52,5,51.2S5.7,49.7,6.5,49.7z"/>
		<path fill="#33A9E0" d="M6.5,42h21c0.8,0,1.5,0.7,1.5,1.5S28.3,45,27.5,45h-21C5.7,45,5,44.3,5,43.5S5.7,42,6.5,42z"/>
	</g>
	<g id="Default">
		<path fill="#45454C" d="M6.5,23.7h21c0.8,0,1.5,0.7,1.5,1.5s-0.7,1.5-1.5,1.5h-21C5.7,26.7,5,26,5,25.2S5.7,23.7,6.5,23.7z"/>
		<path fill="#45454C" d="M6.5,15.7h21c0.8,0,1.5,0.7,1.5,1.5s-0.7,1.5-1.5,1.5h-21C5.7,18.7,5,18,5,17.2S5.7,15.7,6.5,15.7z"/>
		<path fill="#45454C" d="M6.5,8h21C28.3,8,29,8.7,29,9.5c0,0.8-0.7,1.5-1.5,1.5h-21C5.7,11,5,10.3,5,9.5C5,8.7,5.7,8,6.5,8z"/>
	</g>
</g>
</svg>
