<svg id="Layer_1" data-name="Layer 1" xmlns="http://www.w3.org/2000/svg" viewBox="0 0 23.03 12.04"><defs><style>.cls-1{fill:#676867;}.cls-2{fill:#33a9e0;}.cls-3{fill:#fff;}</style></defs><title>test</title><path class="cls-1" d="M294.71,390.68a0.78,0.78,0,0,0,0,1.1l4.8,4.8-4.8,4.6a0.78,0.78,0,0,0,0,1.1,0.91,0.91,0,0,0,1.2,0l5.3-5.2a0.55,0.55,0,0,0,.3-0.5,1.42,1.42,0,0,0-.2-0.6l-5.3-5.2A0.94,0.94,0,0,0,294.71,390.68Z" transform="translate(-294.48 -390.47)"/><path class="cls-2" d="M302.71,390.68a0.78,0.78,0,0,0,0,1.1l4.8,4.8-4.8,4.6a0.78,0.78,0,0,0,0,1.1,0.91,0.91,0,0,0,1.2,0l5.3-5.2a0.55,0.55,0,0,0,.3-0.5,1.42,1.42,0,0,0-.2-0.6l-5.3-5.2A0.94,0.94,0,0,0,302.71,390.68Z" transform="translate(-294.48 -390.47)"/><path class="cls-3" d="M310.71,390.68a0.78,0.78,0,0,0,0,1.1l4.8,4.8-4.8,4.6a0.78,0.78,0,0,0,0,1.1,0.91,0.91,0,0,0,1.2,0l5.3-5.2a0.55,0.55,0,0,0,.3-0.5,1.42,1.42,0,0,0-.2-0.6l-5.3-5.2A0.94,0.94,0,0,0,310.71,390.68Z" transform="translate(-294.48 -390.47)"/></svg>