<?xml version="1.0" encoding="utf-8"?>
<!-- Generator: Adobe Illustrator 18.0.0, SVG Export Plug-In . SVG Version: 6.00 Build 0)  -->
<!DOCTYPE svg PUBLIC "-//W3C//DTD SVG 1.1//EN" "http://www.w3.org/Graphics/SVG/1.1/DTD/svg11.dtd">
<svg version="1.1" id="Layer_1" xmlns="http://www.w3.org/2000/svg" xmlns:xlink="http://www.w3.org/1999/xlink" x="0px" y="0px"
	 viewBox="301 391 10 10" enable-background="new 301 391 10 10" xml:space="preserve">
<path enable-background="new    " d="M307.3,396l3.4-3.4c0.4-0.4,0.4-0.9,0-1.3c-0.4-0.4-0.9-0.4-1.3,0l-3.4,3.4l-3.4-3.4
	c-0.4-0.4-0.9-0.4-1.3,0s-0.4,0.9,0,1.3l3.4,3.4l-3.4,3.4c-0.4,0.4-0.4,0.9,0,1.3s0.9,0.4,1.3,0l3.4-3.4l3.4,3.4
	c0.4,0.4,0.9,0.4,1.3,0s0.4-0.9,0-1.3L307.3,396z"/>
</svg>
