<?xml version="1.0" encoding="utf-8"?>
<!-- Generator: Adobe Illustrator 18.0.0, SVG Export Plug-In . SVG Version: 6.00 Build 0)  -->
<!DOCTYPE svg PUBLIC "-//W3C//DTD SVG 1.1//EN" "http://www.w3.org/Graphics/SVG/1.1/DTD/svg11.dtd">
<svg version="1.1" id="Layer_1" xmlns="http://www.w3.org/2000/svg" xmlns:xlink="http://www.w3.org/1999/xlink" x="0px" y="0px"
	 viewBox="0 0 20 18" enable-background="new 0 0 20 18" xml:space="preserve">
<path fill="#33A8E0" d="M17.3,7.8c-2.1,0.9-2.4,2.2-2.5,3.7c-0.1,0.8-0.2,1.6,0.1,4.2C15.6,15.9,16,17,16,17h-2.5
	c-0.3,0-0.5,0.1-0.5-0.2c0,0,0,0.2,0,0.2h-0.2c0,0,0-2.5,0-2.9c0,0.1-1.2,3.6-5,3.9c-3.6,0.2-5.3-2.7-5.5-3.1c-0.4,0.2-0.3,1-0.3,1
	c0.7,0.1,1.1,0.7,1.1,1.5l-2.5,0c-0.3,0-0.5-0.3-0.5-0.6c0,0-0.2-3.5-0.1-6.8C0.2,6.5,1,5.6,1.2,5.4c0.2,2.9,2.3,4.2,4.4,4.2
	c2.7,0,5-2.4,5-5.3c0-1.6-0.7-3.1-1.7-4c0,0,0,0,0,0c2.1-0.6,2.8,0.9,2.8,0.9c0.7-1.4,2-1.1,2-1.1c-0.5,1.9-0.4,1.8-0.4,1.8
	c1.4-0.1,2.3,1.1,2.3,1.1c3.2-1,4.3-1.4,4.3-1.4C20.7,4.5,19,7.1,17.3,7.8z"/>
</svg>
