<svg xmlns="http://www.w3.org/2000/svg" width="120" height="24" viewBox="0 0 120 24"><path fill-rule="evenodd" clip-rule="evenodd" fill="#FFF" d="M100.558 1.999h14.865a2.574 2.574 0 0 1 2.567 2.567v14.865a2.574 2.574 0 0 1-2.567 2.567h-14.865a2.574 2.574 0 0 1-2.566-2.567V4.566a2.573 2.573 0 0 1 2.566-2.567zm12.002 2.222c-.495 0-.9.405-.9.9v2.155c0 .495.405.9.9.9h2.261a.902.902 0 0 0 .899-.9V5.121c0-.495-.404-.9-.899-.9h-2.261zm3.169 6.235h-1.761c.167.544.257 1.12.257 1.716 0 3.327-2.783 6.023-6.216 6.023-3.434 0-6.217-2.696-6.217-6.023 0-.597.09-1.172.257-1.716h-1.837v8.448c0 .438.358.795.795.795h13.927a.796.796 0 0 0 .795-.795v-8.448zm-7.719-2.393c-2.219 0-4.017 1.743-4.017 3.892s1.798 3.892 4.017 3.892c2.218 0 4.017-1.742 4.017-3.892s-1.799-3.892-4.017-3.892z"/><path fill="#FFF" d="M93.536 6.973c.011.225.017.438.017.66C93.553 14.305 88.604 22 79.545 22c-2.776 0-5.368-.832-7.545-2.264.386.039.778.068 1.176.068a9.668 9.668 0 0 0 6.114-2.17c-2.151-.033-3.969-1.496-4.596-3.496.299.055.604.084.92.084.451 0 .888-.061 1.301-.174-2.253-.469-3.951-2.51-3.951-4.958v-.065a4.868 4.868 0 0 0 2.231.636 5.082 5.082 0 0 1-2.189-4.208c0-.922.246-1.793.671-2.542C76.1 5.974 79.725 7.978 83.82 8.197a5.026 5.026 0 0 1-.126-1.156c0-2.789 2.199-5.045 4.922-5.045 1.41 0 2.688.607 3.587 1.592a9.525 9.525 0 0 0 3.125-1.23 4.99 4.99 0 0 1-2.16 2.795 9.472 9.472 0 0 0 2.824-.794 10.098 10.098 0 0 1-2.456 2.614zM55.917 9.258a.784.784 0 0 0-1.114-.002l-1.873 1.876a.79.79 0 0 0-.001 1.117l6.34 6.372a.783.783 0 0 0 .557.232h.006l.001.001a.8.8 0 0 0 .562-.232L71.768 7.21a.792.792 0 0 0 0-1.117l-1.869-1.878a.78.78 0 0 0-.559-.231.785.785 0 0 0-.559.231l-8.948 8.979-3.916-3.936zm15.147.701l-9.633 9.665c-.416.413-.966.64-1.552.64h-.428l-.09-.061a2.2 2.2 0 0 1-1.042-.585l-6.337-6.37a2.178 2.178 0 0 1-.644-1.556c0-.589.229-1.142.644-1.557l1.875-1.879c.407-.406.971-.64 1.551-.641.579 0 1.144.237 1.551.646l2.922 2.936 6.208-6.228L61.954.823a2.815 2.815 0 0 0-3.979 0l-9.153 9.18a2.837 2.837 0 0 0 0 3.991l9.154 9.181a2.815 2.815 0 0 0 3.979 0l9.152-9.181a2.833 2.833 0 0 0 0-3.991l-.043-.044zm-37.357 4.737c.348-.084.584-.391.606-.782.023-.401-.195-.755-.551-.883 0 0-.987-.383-.99-.383-3.387-1.334-3.539-1.386-3.709-1.387-.262-.011-.495.115-.656.356-.341.521-.485 2.161-.366 3.252.041.358.109.659.208.837a.739.739 0 0 0 .627.403c.167.009.272-.019 3.423-.984.001.001 1.402-.426 1.408-.429zm1.766 1.233c-.391-.144-.812-.056-1.048.227 0 0-.69.781-.692.781-2.375 2.657-2.473 2.78-2.531 2.938a.621.621 0 0 0-.037.29c.015.14.081.28.192.408.55.625 3.189 1.551 4.032 1.414.293-.052.504-.209.596-.443.055-.152.062-.255.07-3.413 0 0 .007-1.396.009-1.409.021-.342-.21-.655-.591-.793zm8.262.617c-.134-.095-.236-.134-3.385-1.119 0 0-1.384-.434-1.4-.443-.334-.123-.716-.009-.973.294-.266.31-.307.718-.095 1.027l.558.862c1.869 2.896 2.012 3.101 2.146 3.201.208.155.473.182.748.076.795-.303 2.531-2.408 2.653-3.218.043-.283-.049-.525-.252-.68zm-5.074-3.317l-.02.028c.177-.062.493-.138 1.067-.267 3.579-.826 3.718-.87 3.859-.959.216-.14.325-.372.306-.656 0-.01.002-.018 0-.028-.092-.838-1.632-3.019-2.391-3.372-.269-.123-.538-.114-.76.027-.139.087-.24.216-2.156 2.716 0 0-.867 1.124-.878 1.136-.228.264-.231.644-.007.968.231.337.622.502.98.407zM34.999 2.012c-.915-.216-4.406.718-5.054 1.354-.207.207-.284.461-.222.687.102.2 1.59 2.43 2.68 4.06l1.749 2.631c.64.989 1.163.835 1.333.786.169-.051.689-.203.63-1.357-.062-1.353-.488-7.376-.539-7.655-.073-.254-.278-.435-.577-.506zM20.896 2H3.104C2.494 2 2 2.494 2 3.104v17.792C2 21.506 2.494 22 3.104 22h9.579v-7.745h-2.606v-3.018h2.606V9.011c0-2.583 1.577-3.99 3.882-3.99 1.104 0 2.053.082 2.33.119v2.7l-1.6.001c-1.252 0-1.495.595-1.495 1.469v1.927h2.989l-.39 3.018h-2.6V22h5.097c.61 0 1.104-.494 1.104-1.104V3.104C22 2.494 21.506 2 20.896 2z"/></svg>