<svg xmlns="http://www.w3.org/2000/svg" viewBox="0 0 36 36"><path fill="#333" d="M31.2 2.5H28v2.9c0 1.1-.9 2-2 2s-2-.9-2-2V2.5H11.9v2.9c0 1.1-.9 2-2 2s-2-.9-2-2V2.5H4.8C2.7 2.5 1 4.2 1 6.4v25.7C1 34.2 2.7 36 4.8 36h26.3c2.1 0 3.8-1.8 3.8-3.9V6.4c.1-2.2-1.6-3.9-3.7-3.9zm1.3 29.6c0 .8-.6 1.4-1.3 1.4H4.8c-.7 0-1.3-.6-1.3-1.4V12.2h29v19.9zM9.9 6.1c.4 0 .7-.3.7-.7V.7c0-.4-.3-.7-.7-.7-.4 0-.7.3-.7.7v4.6c0 .5.3.8.7.8zm16.2 0c.4 0 .7-.3.7-.7V.7c0-.4-.3-.7-.7-.7-.4 0-.7.3-.7.7v4.6c-.1.5.3.8.7.8zm-9.5 22.1c.9-.7 1.3-1.6 1.3-2.8 0-.8-.3-1.5-.8-2s-1.3-.8-2.3-.9v-.1c.8-.2 1.5-.6 2-1.1.5-.5.7-1.2.7-2 0-.9-.4-1.7-1.1-2.2-.7-.5-1.7-.8-3-.8-1.6 0-2.9.4-4 1.2l1.2 1.8c.5-.3 1-.6 1.4-.7.4-.1.8-.2 1.2-.2 1.2 0 1.8.5 1.8 1.4 0 .6-.2 1.1-.7 1.3-.4.3-1.1.4-2.1.4h-1v2h.9c1 0 1.8.1 2.3.4.5.2.7.7.7 1.3 0 .7-.2 1.1-.6 1.4-.4.3-1 .4-1.9.4-.6 0-1.1-.1-1.7-.2-.6-.2-1.1-.4-1.6-.6v2.3c1 .5 2.2.7 3.6.7 1.6 0 2.9-.3 3.7-1zm5.7-8.1c.2-.1.5-.4.9-.9V29h2.6V16.5h-2.1l-4 3.2 1.3 1.6 1.3-1.2z"/></svg>