<svg xmlns="http://www.w3.org/2000/svg" viewBox="0 0 20 19"><path fill="#FFF" d="M17 4.7l1.2-.5 1.1-1.4-1.4-1.3-1.4 1-.5 1.1L12.5 7l1.2 1L17 4.7zm2.1 9.2l-6.4-5.3-.2-.2-1.8-1.5c.2-1 .6-3.8-1-5.3C8.6.6 7.1 0 5.6 0c-.3 0-.7 0-1.1.1-.1 0-.2.1-.2.2s0 .2.1.3l2.4 2.3.5 2.2-2 1.9L3 6.5.6 4.2c-.1-.1-.2-.1-.3-.1-.1 0-.2.1-.2.2-.4 1.8.2 3.6 1.5 4.8.8.8 2 1.2 3.6 1.2.6 0 1.3-.1 2-.2l7.4 8c.6.6 1.4.9 2.2.9.8 0 1.6-.3 2.2-.9 1.3-1.1 1.3-3 .1-4.2zm-1.7 2.6c-.3.3-.8.3-1.1 0-.3-.3-.3-.8 0-1.1.3-.3.8-.3 1.1 0 .3.4.3.8 0 1.1zm-10.5-5c-.3-.3-.7-.3-1 0L1.1 16c-.3.3-.3.7 0 1L3 18.7c.3.3.7.3 1 0l4.6-4.3c.3-.3.3-.7 0-1l-1.7-1.9z"/></svg>