<svg id="Livello_1" xmlns="http://www.w3.org/2000/svg" viewBox="0 0 141.7 141.7"><style>.st0{fill:#fff}</style><path class="st0" d="M139.3 49.1c0-3.3-2.8-5.9-6.1-5.9h-.6l-42.4-1L75.5 4.3C74.8 1.8 72.4 0 69.6 0c-2.8 0-5.2 1.8-5.9 4.3L49.2 42.2l-42.4 1h-.6c-3.4 0-6.1 2.7-6.1 5.9 0 2.1 1.1 3.9 2.8 5L36.6 78l-12.1 37.5c-.4.8-.7 1.7-.7 2.7 0 3.3 2.8 6 6.1 6 1.4 0 2.8-.5 3.8-1.3l35.8-22.7 35.8 22.7c1 .8 2.4 1.3 3.8 1.3 3.4 0 6.1-2.7 6.1-6 0-1-.2-1.9-.7-2.7L102.7 78l33.8-23.9c1.6-1.1 2.8-2.9 2.8-5" id="Livello_100"/></svg>