<?xml version="1.0" encoding="utf-8"?>
<!-- Generator: Adobe Illustrator 18.0.0, SVG Export Plug-In . SVG Version: 6.00 Build 0)  -->
<!DOCTYPE svg PUBLIC "-//W3C//DTD SVG 1.1//EN" "http://www.w3.org/Graphics/SVG/1.1/DTD/svg11.dtd">
<svg version="1.1" id="Layer_1" xmlns="http://www.w3.org/2000/svg" xmlns:xlink="http://www.w3.org/1999/xlink" x="0px" y="0px"
	 viewBox="0 0 12 18" enable-background="new 0 0 12 18" xml:space="preserve">
<g>
	<g>
		<path fill="#9C2A2D" d="M7.5,13.5l2.7-2.7c0.4-0.4,0.4-1.1,0-1.5c-0.4-0.4-1.1-0.4-1.5,0L6,12L3.3,9.3c-0.4-0.4-1.1-0.4-1.5,0
			c-0.4,0.4-0.4,1.1,0,1.5l2.7,2.7l-2.7,2.7c-0.4,0.4-0.4,1.1,0,1.5C2,17.9,2.3,18,2.6,18c0.3,0,0.5-0.1,0.8-0.3L6,15l2.7,2.7
			C8.9,17.9,9.2,18,9.4,18c0.3,0,0.6-0.1,0.8-0.3c0.4-0.4,0.4-1.1,0-1.5L7.5,13.5z"/>
	</g>
</g>
<path fill="#44AD5F" d="M4.2,9L4.2,9C3.9,9,3.7,8.9,3.5,8.7L0.3,5.5c-0.4-0.4-0.4-1.1,0-1.5c0.4-0.4,1.1-0.4,1.5,0l2.4,2.4l6-6.1
	c0.4-0.4,1.1-0.4,1.5,0c0.4,0.4,0.4,1.1,0,1.5L5,8.7C4.8,8.9,4.5,9,4.2,9z"/>
</svg>
