<?xml version="1.0" encoding="utf-8"?>
<!-- Generator: Adobe Illustrator 18.0.0, SVG Export Plug-In . SVG Version: 6.00 Build 0)  -->
<!DOCTYPE svg PUBLIC "-//W3C//DTD SVG 1.1//EN" "http://www.w3.org/Graphics/SVG/1.1/DTD/svg11.dtd">
<svg version="1.1" id="Layer_1" xmlns="http://www.w3.org/2000/svg" xmlns:xlink="http://www.w3.org/1999/xlink" x="0px" y="0px"
	 viewBox="0 0 20 40" enable-background="new 0 0 20 40" xml:space="preserve">
<path fill="#CCCCCC" d="M10,20C4.5,20,0,15.5,0,10C0,4.5,4.5,0,10,0c5.5,0,10,4.5,10,10C20,15.5,15.5,20,10,20z M10,2
	c-4.4,0-8,3.6-8,8c0,4.4,3.6,8,8,8s8-3.6,8-8C18,5.6,14.4,2,10,2z"/>
<path fill="#CCCCCC" d="M10,40C4.5,40,0,35.5,0,30c0-5.5,4.5-10,10-10c5.5,0,10,4.5,10,10C20,35.5,15.5,40,10,40z M10,22
	c-4.4,0-8,3.6-8,8c0,4.4,3.6,8,8,8s8-3.6,8-8C18,25.6,14.4,22,10,22z"/>
<path fill-rule="evenodd" clip-rule="evenodd" fill="#33A8E0" d="M10,25c2.8,0,5,2.2,5,5c0,2.8-2.2,5-5,5c-2.8,0-5-2.2-5-5
	C5,27.2,7.2,25,10,25z"/>
</svg>
